<svg xmlns="http://www.w3.org/2000/svg" width="620" height="620" viewBox="0 0 620 620" version="1.1">
	<path d="M 0 310.002 L 0 620.003 310.250 619.752 L 620.500 619.500 620.752 309.750 L 621.003 0 310.502 0 L 0 0 0 310.002 M 0.494 310.500 C 0.494 481, 0.609 550.601, 0.750 465.169 C 0.891 379.737, 0.891 240.237, 0.750 155.169 C 0.609 70.101, 0.494 140, 0.494 310.500 M 206.330 108.797 C 150.137 139.984, 104.462 165.792, 104.830 166.149 C 105.199 166.506, 130.925 180.857, 162 198.039 C 193.075 215.222, 222.035 231.238, 226.356 233.631 L 234.212 237.983 240.356 232.613 C 271.809 205.125, 314.509 198.656, 352.783 215.583 C 359.877 218.720, 373.303 227.597, 379.663 233.354 L 384.826 238.029 449.163 202.436 C 484.548 182.860, 513.813 166.541, 514.195 166.172 C 514.881 165.509, 311.097 51.956, 309.384 52.047 C 308.898 52.072, 262.524 77.610, 206.330 108.797 M 77 324.806 L 77 438.612 179.365 495.306 C 235.666 526.488, 282.016 552, 282.365 552 C 282.714 552, 282.996 519.938, 282.991 480.750 L 282.983 409.500 276.741 407.560 C 262.653 403.179, 244.960 392.079, 234.866 381.288 C 210.417 355.150, 201.111 321.678, 208.513 286.500 L 209.144 283.500 143.730 247.250 C 107.752 227.313, 78.020 211, 77.658 211 C 77.296 211, 77 262.213, 77 324.806 M 475.500 247.143 C 439.750 266.990, 410.408 283.307, 410.296 283.402 C 410.184 283.496, 410.731 287.157, 411.511 291.537 C 417.122 323.027, 407.290 356.290, 385.377 379.959 C 374.338 391.882, 354.174 404.626, 340.750 408.163 L 336 409.415 336 481.112 L 336 552.808 421.750 505.291 C 468.913 479.157, 515.263 453.501, 524.750 448.279 L 542 438.784 542 324.892 C 542 262.251, 541.663 211.013, 541.250 211.028 C 540.837 211.044, 511.250 227.295, 475.500 247.143 M 298.411 259.484 C 270.877 265.475, 252.617 294.618, 259.530 321.540 C 262.695 333.863, 270.446 345.083, 280.642 352.097 C 291.608 359.642, 308.489 362.781, 321 359.601 C 331.440 356.947, 337.873 353.279, 345.592 345.577 C 366.081 325.133, 366.258 294.401, 346.006 273.885 C 333.096 260.806, 316.045 255.647, 298.411 259.484" stroke="none" fill="black" fill-rule="evenodd"/>
</svg>